<svg width="1525" height="1525" viewBox="0 0 1525 1525" fill="none" xmlns="http://www.w3.org/2000/svg">
<path d="M762.558 0.404938C1071.52 0.405035 1337.53 184.294 1457.12 448.594L486.615 64.6813L83.9951 1082.48L1054.52 1466.4C964.599 1503.73 865.985 1524.34 762.558 1524.34C341.735 1524.34 0.590891 1183.19 0.590759 762.372C0.590759 341.549 341.735 0.404938 762.558 0.404938ZM1461.09 457.514C1501.89 550.868 1524.52 653.977 1524.52 762.372C1524.52 1076.31 1334.66 1345.91 1063.5 1462.6L1461.09 457.514Z" fill="black"/>
<path d="M434.057 933.871C414.057 933.871 395.724 931.538 379.057 926.871C362.724 922.205 348.891 915.205 337.557 905.871C326.224 896.538 317.724 884.871 312.057 870.871C306.391 856.871 304.057 840.705 305.057 822.371L349.057 813.871C347.724 834.205 350.891 850.205 358.557 861.871C366.557 873.538 377.391 881.871 391.057 886.871C404.724 891.538 419.391 893.871 435.057 893.871C451.724 893.871 465.891 891.871 477.557 887.871C489.557 883.538 498.724 877.371 505.057 869.371C511.724 861.371 515.057 851.871 515.057 840.871C515.057 827.538 510.891 817.371 502.557 810.371C494.224 803.038 483.391 797.205 470.057 792.871C456.724 788.538 442.724 784.871 428.057 781.871C413.724 778.538 399.391 774.705 385.057 770.371C371.057 766.038 358.224 760.538 346.557 753.871C335.224 746.871 326.057 737.871 319.057 726.871C312.057 715.871 308.557 702.205 308.557 685.871C308.557 666.871 313.391 650.371 323.057 636.371C332.724 622.038 346.391 610.871 364.057 602.871C382.057 594.871 403.224 590.871 427.557 590.871C451.557 590.871 472.724 594.871 491.057 602.871C509.391 610.538 523.557 622.205 533.557 637.871C543.557 653.205 547.724 672.538 546.057 695.871L503.057 703.371C504.057 691.371 502.891 680.871 499.557 671.871C496.224 662.871 490.891 655.205 483.557 648.871C476.557 642.538 468.057 637.871 458.057 634.871C448.057 631.538 437.057 629.871 425.057 629.871C410.724 629.871 398.224 632.205 387.557 636.871C376.891 641.205 368.557 647.371 362.557 655.371C356.891 663.038 354.057 672.205 354.057 682.871C354.057 695.871 358.057 706.038 366.057 713.371C374.391 720.371 385.057 725.871 398.057 729.871C411.391 733.871 425.557 737.538 440.557 740.871C455.224 744.205 469.557 748.038 483.557 752.371C497.557 756.705 510.391 762.371 522.057 769.371C534.057 776.038 543.391 785.038 550.057 796.371C557.057 807.705 560.557 821.871 560.557 838.871C560.557 858.871 555.391 876.038 545.057 890.371C534.724 904.705 520.057 915.538 501.057 922.871C482.057 930.205 459.724 933.871 434.057 933.871Z" fill="black"/>
<path d="M784.057 933.871C760.057 933.871 738.724 929.871 720.057 921.871C701.724 913.538 686.224 901.871 673.557 886.871C660.891 871.538 651.391 853.538 645.057 832.871C638.724 811.871 635.557 788.871 635.557 763.871C635.557 737.871 638.891 714.371 645.557 693.371C652.224 672.038 661.891 653.705 674.557 638.371C687.224 623.038 702.557 611.371 720.557 603.371C738.891 595.038 759.557 590.871 782.557 590.871C801.891 590.871 819.057 593.705 834.057 599.371C849.057 605.038 861.724 613.038 872.057 623.371C882.724 633.705 890.724 646.038 896.057 660.371C901.391 674.705 904.057 690.371 904.057 707.371L861.557 713.871C860.891 696.538 857.224 681.705 850.557 669.371C843.891 657.038 834.724 647.705 823.057 641.371C811.391 634.705 797.557 631.371 781.557 631.371C767.557 631.371 754.557 634.038 742.557 639.371C730.891 644.705 720.557 652.705 711.557 663.371C702.557 674.038 695.557 687.705 690.557 704.371C685.557 720.705 683.057 739.871 683.057 761.871C683.057 789.871 687.057 813.705 695.057 833.371C703.391 853.038 715.224 868.038 730.557 878.371C745.891 888.705 764.224 893.871 785.557 893.871C804.557 893.871 820.391 889.705 833.057 881.371C846.057 873.038 855.724 861.038 862.057 845.371C868.724 829.705 871.724 810.871 871.057 788.871L914.557 794.871C915.557 814.538 913.391 832.871 908.057 849.871C903.057 866.538 895.057 881.205 884.057 893.871C873.391 906.538 859.724 916.371 843.057 923.371C826.391 930.371 806.724 933.871 784.057 933.871Z" fill="black"/>
<path d="M998.057 927.371V597.371H1044.06V927.371H998.057ZM1023.06 927.371V887.371H1222.56V927.371H1023.06ZM1023.06 779.371V741.371H1199.06V779.371H1023.06ZM1023.06 637.371V597.371H1222.56V637.371H1023.06Z" fill="black"/>
</svg>
